<mxfile host="app.diagrams.net" modified="2021-04-26T07:43:31.946Z" agent="5.0 (Windows)" etag="0YGmKT4KH86k4TRt6FLc" version="14.5.10" type="github">
  <diagram id="C5RBs43oDa-KdzZeNtuy" name="Page-1">
    <mxGraphModel dx="1422" dy="771" grid="1" gridSize="10" guides="1" tooltips="1" connect="1" arrows="1" fold="1" page="1" pageScale="1" pageWidth="827" pageHeight="1169" math="0" shadow="0">
      <root>
        <mxCell id="WIyWlLk6GJQsqaUBKTNV-0" />
        <mxCell id="WIyWlLk6GJQsqaUBKTNV-1" parent="WIyWlLk6GJQsqaUBKTNV-0" />
        <mxCell id="zkfFHV4jXpPFQw0GAbJ--0" value="Pedidos" style="swimlane;fontStyle=0;align=center;verticalAlign=top;childLayout=stackLayout;horizontal=1;startSize=26;horizontalStack=0;resizeParent=1;resizeLast=0;collapsible=1;marginBottom=0;rounded=0;shadow=0;strokeWidth=1;" parent="WIyWlLk6GJQsqaUBKTNV-1" vertex="1">
          <mxGeometry x="500" y="70" width="160" height="240" as="geometry">
            <mxRectangle x="340" y="80" width="160" height="26" as="alternateBounds" />
          </mxGeometry>
        </mxCell>
        <mxCell id="zkfFHV4jXpPFQw0GAbJ--1" value="#codPedido" style="text;align=left;verticalAlign=top;spacingLeft=4;spacingRight=4;overflow=hidden;rotatable=0;points=[[0,0.5],[1,0.5]];portConstraint=eastwest;fontStyle=0" parent="zkfFHV4jXpPFQw0GAbJ--0" vertex="1">
          <mxGeometry y="26" width="160" height="26" as="geometry" />
        </mxCell>
        <mxCell id="zkfFHV4jXpPFQw0GAbJ--2" value="#nombre" style="text;align=left;verticalAlign=top;spacingLeft=4;spacingRight=4;overflow=hidden;rotatable=0;points=[[0,0.5],[1,0.5]];portConstraint=eastwest;rounded=0;shadow=0;html=0;fontStyle=0" parent="zkfFHV4jXpPFQw0GAbJ--0" vertex="1">
          <mxGeometry y="52" width="160" height="26" as="geometry" />
        </mxCell>
        <mxCell id="iE6FMapl29Qg4c_nM3nC-20" value="#apellidos" style="text;align=left;verticalAlign=top;spacingLeft=4;spacingRight=4;overflow=hidden;rotatable=0;points=[[0,0.5],[1,0.5]];portConstraint=eastwest;rounded=0;shadow=0;html=0;fontStyle=0" vertex="1" parent="zkfFHV4jXpPFQw0GAbJ--0">
          <mxGeometry y="78" width="160" height="26" as="geometry" />
        </mxCell>
        <mxCell id="zkfFHV4jXpPFQw0GAbJ--3" value="#fecha" style="text;align=left;verticalAlign=top;spacingLeft=4;spacingRight=4;overflow=hidden;rotatable=0;points=[[0,0.5],[1,0.5]];portConstraint=eastwest;rounded=0;shadow=0;html=0;fontStyle=0" parent="zkfFHV4jXpPFQw0GAbJ--0" vertex="1">
          <mxGeometry y="104" width="160" height="26" as="geometry" />
        </mxCell>
        <mxCell id="zkfFHV4jXpPFQw0GAbJ--4" value="" style="line;html=1;strokeWidth=1;align=left;verticalAlign=middle;spacingTop=-1;spacingLeft=3;spacingRight=3;rotatable=0;labelPosition=right;points=[];portConstraint=eastwest;fontStyle=0" parent="zkfFHV4jXpPFQw0GAbJ--0" vertex="1">
          <mxGeometry y="130" width="160" height="8" as="geometry" />
        </mxCell>
        <mxCell id="iE6FMapl29Qg4c_nM3nC-21" value="+cancelarPedido" style="text;align=left;verticalAlign=top;spacingLeft=4;spacingRight=4;overflow=hidden;rotatable=0;points=[[0,0.5],[1,0.5]];portConstraint=eastwest;rounded=0;shadow=0;html=0;fontStyle=0" vertex="1" parent="zkfFHV4jXpPFQw0GAbJ--0">
          <mxGeometry y="138" width="160" height="26" as="geometry" />
        </mxCell>
        <mxCell id="iE6FMapl29Qg4c_nM3nC-22" value="+duplicarPedido" style="text;align=left;verticalAlign=top;spacingLeft=4;spacingRight=4;overflow=hidden;rotatable=0;points=[[0,0.5],[1,0.5]];portConstraint=eastwest;rounded=0;shadow=0;html=0;fontStyle=0" vertex="1" parent="zkfFHV4jXpPFQw0GAbJ--0">
          <mxGeometry y="164" width="160" height="26" as="geometry" />
        </mxCell>
        <mxCell id="iE6FMapl29Qg4c_nM3nC-23" value="+congelarPedido" style="text;align=left;verticalAlign=top;spacingLeft=4;spacingRight=4;overflow=hidden;rotatable=0;points=[[0,0.5],[1,0.5]];portConstraint=eastwest;rounded=0;shadow=0;html=0;fontStyle=0" vertex="1" parent="zkfFHV4jXpPFQw0GAbJ--0">
          <mxGeometry y="190" width="160" height="26" as="geometry" />
        </mxCell>
        <mxCell id="iE6FMapl29Qg4c_nM3nC-0" value="PIZZADAW" style="shape=note;whiteSpace=wrap;html=1;backgroundOutline=1;darkOpacity=0.05;fontStyle=0" vertex="1" parent="WIyWlLk6GJQsqaUBKTNV-1">
          <mxGeometry x="20" y="30" width="170" height="100" as="geometry" />
        </mxCell>
        <mxCell id="iE6FMapl29Qg4c_nM3nC-1" value="Llevar" style="swimlane;fontStyle=0;align=center;verticalAlign=top;childLayout=stackLayout;horizontal=1;startSize=26;horizontalStack=0;resizeParent=1;resizeLast=0;collapsible=1;marginBottom=0;rounded=0;shadow=0;strokeWidth=1;" vertex="1" parent="WIyWlLk6GJQsqaUBKTNV-1">
          <mxGeometry x="230" y="490" width="160" height="138" as="geometry">
            <mxRectangle x="230" y="140" width="160" height="26" as="alternateBounds" />
          </mxGeometry>
        </mxCell>
        <mxCell id="iE6FMapl29Qg4c_nM3nC-2" value="-direccion" style="text;align=left;verticalAlign=top;spacingLeft=4;spacingRight=4;overflow=hidden;rotatable=0;points=[[0,0.5],[1,0.5]];portConstraint=eastwest;fontStyle=0" vertex="1" parent="iE6FMapl29Qg4c_nM3nC-1">
          <mxGeometry y="26" width="160" height="26" as="geometry" />
        </mxCell>
        <mxCell id="iE6FMapl29Qg4c_nM3nC-3" value="-entregado" style="text;align=left;verticalAlign=top;spacingLeft=4;spacingRight=4;overflow=hidden;rotatable=0;points=[[0,0.5],[1,0.5]];portConstraint=eastwest;rounded=0;shadow=0;html=0;fontStyle=0" vertex="1" parent="iE6FMapl29Qg4c_nM3nC-1">
          <mxGeometry y="52" width="160" height="26" as="geometry" />
        </mxCell>
        <mxCell id="iE6FMapl29Qg4c_nM3nC-5" value="" style="line;html=1;strokeWidth=1;align=left;verticalAlign=middle;spacingTop=-1;spacingLeft=3;spacingRight=3;rotatable=0;labelPosition=right;points=[];portConstraint=eastwest;fontStyle=0" vertex="1" parent="iE6FMapl29Qg4c_nM3nC-1">
          <mxGeometry y="78" width="160" height="8" as="geometry" />
        </mxCell>
        <mxCell id="iE6FMapl29Qg4c_nM3nC-13" value="Local" style="swimlane;fontStyle=0;align=center;verticalAlign=top;childLayout=stackLayout;horizontal=1;startSize=26;horizontalStack=0;resizeParent=1;resizeLast=0;collapsible=1;marginBottom=0;rounded=0;shadow=0;strokeWidth=1;" vertex="1" parent="WIyWlLk6GJQsqaUBKTNV-1">
          <mxGeometry x="740" y="490" width="160" height="138" as="geometry">
            <mxRectangle x="230" y="140" width="160" height="26" as="alternateBounds" />
          </mxGeometry>
        </mxCell>
        <mxCell id="iE6FMapl29Qg4c_nM3nC-14" value="-mesa" style="text;align=left;verticalAlign=top;spacingLeft=4;spacingRight=4;overflow=hidden;rotatable=0;points=[[0,0.5],[1,0.5]];portConstraint=eastwest;fontStyle=0" vertex="1" parent="iE6FMapl29Qg4c_nM3nC-13">
          <mxGeometry y="26" width="160" height="22" as="geometry" />
        </mxCell>
        <mxCell id="iE6FMapl29Qg4c_nM3nC-15" value="-servido" style="text;align=left;verticalAlign=top;spacingLeft=4;spacingRight=4;overflow=hidden;rotatable=0;points=[[0,0.5],[1,0.5]];portConstraint=eastwest;rounded=0;shadow=0;html=0;fontStyle=0" vertex="1" parent="iE6FMapl29Qg4c_nM3nC-13">
          <mxGeometry y="48" width="160" height="26" as="geometry" />
        </mxCell>
        <mxCell id="iE6FMapl29Qg4c_nM3nC-17" value="" style="line;html=1;strokeWidth=1;align=left;verticalAlign=middle;spacingTop=-1;spacingLeft=3;spacingRight=3;rotatable=0;labelPosition=right;points=[];portConstraint=eastwest;fontStyle=0" vertex="1" parent="iE6FMapl29Qg4c_nM3nC-13">
          <mxGeometry y="74" width="160" height="8" as="geometry" />
        </mxCell>
        <mxCell id="iE6FMapl29Qg4c_nM3nC-18" value="+entregarBeeper" style="text;align=left;verticalAlign=top;spacingLeft=4;spacingRight=4;overflow=hidden;rotatable=0;points=[[0,0.5],[1,0.5]];portConstraint=eastwest;fontStyle=0" vertex="1" parent="iE6FMapl29Qg4c_nM3nC-13">
          <mxGeometry y="82" width="160" height="26" as="geometry" />
        </mxCell>
        <mxCell id="iE6FMapl29Qg4c_nM3nC-59" value="+recogerBeeper" style="text;align=left;verticalAlign=top;spacingLeft=4;spacingRight=4;overflow=hidden;rotatable=0;points=[[0,0.5],[1,0.5]];portConstraint=eastwest;fontStyle=0" vertex="1" parent="iE6FMapl29Qg4c_nM3nC-13">
          <mxGeometry y="108" width="160" height="26" as="geometry" />
        </mxCell>
        <mxCell id="iE6FMapl29Qg4c_nM3nC-24" value="Pizza" style="swimlane;fontStyle=0;align=center;verticalAlign=top;childLayout=stackLayout;horizontal=1;startSize=26;horizontalStack=0;resizeParent=1;resizeLast=0;collapsible=1;marginBottom=0;rounded=0;shadow=0;strokeWidth=1;" vertex="1" parent="WIyWlLk6GJQsqaUBKTNV-1">
          <mxGeometry x="760" y="60" width="160" height="138" as="geometry">
            <mxRectangle x="230" y="140" width="160" height="26" as="alternateBounds" />
          </mxGeometry>
        </mxCell>
        <mxCell id="iE6FMapl29Qg4c_nM3nC-25" value="-codigoPizza" style="text;align=left;verticalAlign=top;spacingLeft=4;spacingRight=4;overflow=hidden;rotatable=0;points=[[0,0.5],[1,0.5]];portConstraint=eastwest;fontStyle=0" vertex="1" parent="iE6FMapl29Qg4c_nM3nC-24">
          <mxGeometry y="26" width="160" height="22" as="geometry" />
        </mxCell>
        <mxCell id="iE6FMapl29Qg4c_nM3nC-26" value="-nombre" style="text;align=left;verticalAlign=top;spacingLeft=4;spacingRight=4;overflow=hidden;rotatable=0;points=[[0,0.5],[1,0.5]];portConstraint=eastwest;rounded=0;shadow=0;html=0;fontStyle=0" vertex="1" parent="iE6FMapl29Qg4c_nM3nC-24">
          <mxGeometry y="48" width="160" height="26" as="geometry" />
        </mxCell>
        <mxCell id="iE6FMapl29Qg4c_nM3nC-28" value="" style="line;html=1;strokeWidth=1;align=left;verticalAlign=middle;spacingTop=-1;spacingLeft=3;spacingRight=3;rotatable=0;labelPosition=right;points=[];portConstraint=eastwest;fontStyle=0" vertex="1" parent="iE6FMapl29Qg4c_nM3nC-24">
          <mxGeometry y="74" width="160" height="8" as="geometry" />
        </mxCell>
        <mxCell id="iE6FMapl29Qg4c_nM3nC-29" value="Purchase Parking Pass" style="text;align=left;verticalAlign=top;spacingLeft=4;spacingRight=4;overflow=hidden;rotatable=0;points=[[0,0.5],[1,0.5]];portConstraint=eastwest;fontStyle=0" vertex="1" parent="iE6FMapl29Qg4c_nM3nC-24">
          <mxGeometry y="82" width="160" height="26" as="geometry" />
        </mxCell>
        <mxCell id="iE6FMapl29Qg4c_nM3nC-30" value="Extras" style="swimlane;fontStyle=0;align=center;verticalAlign=top;childLayout=stackLayout;horizontal=1;startSize=26;horizontalStack=0;resizeParent=1;resizeLast=0;collapsible=1;marginBottom=0;rounded=0;shadow=0;strokeWidth=1;" vertex="1" parent="WIyWlLk6GJQsqaUBKTNV-1">
          <mxGeometry x="980" y="83.5" width="160" height="91" as="geometry">
            <mxRectangle x="230" y="140" width="160" height="26" as="alternateBounds" />
          </mxGeometry>
        </mxCell>
        <mxCell id="iE6FMapl29Qg4c_nM3nC-31" value="-ingrediente" style="text;align=left;verticalAlign=top;spacingLeft=4;spacingRight=4;overflow=hidden;rotatable=0;points=[[0,0.5],[1,0.5]];portConstraint=eastwest;fontStyle=0" vertex="1" parent="iE6FMapl29Qg4c_nM3nC-30">
          <mxGeometry y="26" width="160" height="22" as="geometry" />
        </mxCell>
        <mxCell id="iE6FMapl29Qg4c_nM3nC-53" value="-cantidad" style="text;align=left;verticalAlign=top;spacingLeft=4;spacingRight=4;overflow=hidden;rotatable=0;points=[[0,0.5],[1,0.5]];portConstraint=eastwest;fontStyle=0" vertex="1" parent="iE6FMapl29Qg4c_nM3nC-30">
          <mxGeometry y="48" width="160" height="22" as="geometry" />
        </mxCell>
        <mxCell id="iE6FMapl29Qg4c_nM3nC-42" value="CatalogoPromociones" style="swimlane;fontStyle=0;align=center;verticalAlign=top;childLayout=stackLayout;horizontal=1;startSize=26;horizontalStack=0;resizeParent=1;resizeLast=0;collapsible=1;marginBottom=0;rounded=0;shadow=0;strokeWidth=1;" vertex="1" parent="WIyWlLk6GJQsqaUBKTNV-1">
          <mxGeometry x="940" y="390" width="160" height="90" as="geometry">
            <mxRectangle x="230" y="140" width="160" height="26" as="alternateBounds" />
          </mxGeometry>
        </mxCell>
        <mxCell id="iE6FMapl29Qg4c_nM3nC-43" value="-codPromo" style="text;align=left;verticalAlign=top;spacingLeft=4;spacingRight=4;overflow=hidden;rotatable=0;points=[[0,0.5],[1,0.5]];portConstraint=eastwest;fontStyle=0" vertex="1" parent="iE6FMapl29Qg4c_nM3nC-42">
          <mxGeometry y="26" width="160" height="22" as="geometry" />
        </mxCell>
        <mxCell id="iE6FMapl29Qg4c_nM3nC-49" value="-validez" style="text;align=left;verticalAlign=top;spacingLeft=4;spacingRight=4;overflow=hidden;rotatable=0;points=[[0,0.5],[1,0.5]];portConstraint=eastwest;fontStyle=0" vertex="1" parent="iE6FMapl29Qg4c_nM3nC-42">
          <mxGeometry y="48" width="160" height="22" as="geometry" />
        </mxCell>
        <mxCell id="iE6FMapl29Qg4c_nM3nC-50" value="Observaciones" style="swimlane;fontStyle=0;align=center;verticalAlign=top;childLayout=stackLayout;horizontal=1;startSize=26;horizontalStack=0;resizeParent=1;resizeLast=0;collapsible=1;marginBottom=0;rounded=0;shadow=0;strokeWidth=1;" vertex="1" parent="WIyWlLk6GJQsqaUBKTNV-1">
          <mxGeometry x="760" y="280" width="160" height="70" as="geometry">
            <mxRectangle x="230" y="140" width="160" height="26" as="alternateBounds" />
          </mxGeometry>
        </mxCell>
        <mxCell id="iE6FMapl29Qg4c_nM3nC-51" value="-descripcion" style="text;align=left;verticalAlign=top;spacingLeft=4;spacingRight=4;overflow=hidden;rotatable=0;points=[[0,0.5],[1,0.5]];portConstraint=eastwest;fontStyle=0" vertex="1" parent="iE6FMapl29Qg4c_nM3nC-50">
          <mxGeometry y="26" width="160" height="22" as="geometry" />
        </mxCell>
        <mxCell id="iE6FMapl29Qg4c_nM3nC-60" value="Pago" style="swimlane;fontStyle=0;align=center;verticalAlign=top;childLayout=stackLayout;horizontal=1;startSize=26;horizontalStack=0;resizeParent=1;resizeLast=0;collapsible=1;marginBottom=0;rounded=0;shadow=0;strokeWidth=1;" vertex="1" parent="WIyWlLk6GJQsqaUBKTNV-1">
          <mxGeometry x="485" y="790" width="160" height="91" as="geometry">
            <mxRectangle x="230" y="140" width="160" height="26" as="alternateBounds" />
          </mxGeometry>
        </mxCell>
        <mxCell id="iE6FMapl29Qg4c_nM3nC-61" value="-ingrediente" style="text;align=left;verticalAlign=top;spacingLeft=4;spacingRight=4;overflow=hidden;rotatable=0;points=[[0,0.5],[1,0.5]];portConstraint=eastwest;fontStyle=0" vertex="1" parent="iE6FMapl29Qg4c_nM3nC-60">
          <mxGeometry y="26" width="160" height="22" as="geometry" />
        </mxCell>
        <mxCell id="iE6FMapl29Qg4c_nM3nC-62" value="-cantidad" style="text;align=left;verticalAlign=top;spacingLeft=4;spacingRight=4;overflow=hidden;rotatable=0;points=[[0,0.5],[1,0.5]];portConstraint=eastwest;fontStyle=0" vertex="1" parent="iE6FMapl29Qg4c_nM3nC-60">
          <mxGeometry y="48" width="160" height="22" as="geometry" />
        </mxCell>
        <mxCell id="iE6FMapl29Qg4c_nM3nC-63" value="PayPal" style="swimlane;fontStyle=0;align=center;verticalAlign=top;childLayout=stackLayout;horizontal=1;startSize=26;horizontalStack=0;resizeParent=1;resizeLast=0;collapsible=1;marginBottom=0;rounded=0;shadow=0;strokeWidth=1;" vertex="1" parent="WIyWlLk6GJQsqaUBKTNV-1">
          <mxGeometry x="370" y="960" width="160" height="91" as="geometry">
            <mxRectangle x="230" y="140" width="160" height="26" as="alternateBounds" />
          </mxGeometry>
        </mxCell>
        <mxCell id="iE6FMapl29Qg4c_nM3nC-64" value="-cuentaPayPal" style="text;align=left;verticalAlign=top;spacingLeft=4;spacingRight=4;overflow=hidden;rotatable=0;points=[[0,0.5],[1,0.5]];portConstraint=eastwest;fontStyle=0" vertex="1" parent="iE6FMapl29Qg4c_nM3nC-63">
          <mxGeometry y="26" width="160" height="22" as="geometry" />
        </mxCell>
        <mxCell id="iE6FMapl29Qg4c_nM3nC-66" value="Tarjeta" style="swimlane;fontStyle=0;align=center;verticalAlign=top;childLayout=stackLayout;horizontal=1;startSize=26;horizontalStack=0;resizeParent=1;resizeLast=0;collapsible=1;marginBottom=0;rounded=0;shadow=0;strokeWidth=1;" vertex="1" parent="WIyWlLk6GJQsqaUBKTNV-1">
          <mxGeometry x="610" y="960" width="160" height="91" as="geometry">
            <mxRectangle x="230" y="140" width="160" height="26" as="alternateBounds" />
          </mxGeometry>
        </mxCell>
        <mxCell id="iE6FMapl29Qg4c_nM3nC-67" value="-numTarjeta" style="text;align=left;verticalAlign=top;spacingLeft=4;spacingRight=4;overflow=hidden;rotatable=0;points=[[0,0.5],[1,0.5]];portConstraint=eastwest;fontStyle=0" vertex="1" parent="iE6FMapl29Qg4c_nM3nC-66">
          <mxGeometry y="26" width="160" height="22" as="geometry" />
        </mxCell>
        <mxCell id="iE6FMapl29Qg4c_nM3nC-69" value="" style="endArrow=block;html=1;fillColor=#FFFFFF;startArrow=none;exitX=0.468;exitY=0;exitDx=0;exitDy=0;endFill=0;exitPerimeter=0;" edge="1" parent="WIyWlLk6GJQsqaUBKTNV-1" source="iE6FMapl29Qg4c_nM3nC-7">
          <mxGeometry width="50" height="50" relative="1" as="geometry">
            <mxPoint x="585" y="669" as="sourcePoint" />
            <mxPoint x="560" y="310" as="targetPoint" />
          </mxGeometry>
        </mxCell>
        <mxCell id="iE6FMapl29Qg4c_nM3nC-7" value="Recoger" style="swimlane;fontStyle=0;align=center;verticalAlign=top;childLayout=stackLayout;horizontal=1;startSize=26;horizontalStack=0;resizeParent=1;resizeLast=0;collapsible=1;marginBottom=0;rounded=0;shadow=0;strokeWidth=1;" vertex="1" parent="WIyWlLk6GJQsqaUBKTNV-1">
          <mxGeometry x="470" y="492" width="190" height="138" as="geometry">
            <mxRectangle x="230" y="140" width="160" height="26" as="alternateBounds" />
          </mxGeometry>
        </mxCell>
        <mxCell id="iE6FMapl29Qg4c_nM3nC-8" value="-preparado" style="text;align=left;verticalAlign=top;spacingLeft=4;spacingRight=4;overflow=hidden;rotatable=0;points=[[0,0.5],[1,0.5]];portConstraint=eastwest;fontStyle=0" vertex="1" parent="iE6FMapl29Qg4c_nM3nC-7">
          <mxGeometry y="26" width="190" height="26" as="geometry" />
        </mxCell>
        <mxCell id="iE6FMapl29Qg4c_nM3nC-9" value="-recogido" style="text;align=left;verticalAlign=top;spacingLeft=4;spacingRight=4;overflow=hidden;rotatable=0;points=[[0,0.5],[1,0.5]];portConstraint=eastwest;rounded=0;shadow=0;html=0;fontStyle=0" vertex="1" parent="iE6FMapl29Qg4c_nM3nC-7">
          <mxGeometry y="52" width="190" height="26" as="geometry" />
        </mxCell>
        <mxCell id="iE6FMapl29Qg4c_nM3nC-11" value="" style="line;html=1;strokeWidth=1;align=left;verticalAlign=middle;spacingTop=-1;spacingLeft=3;spacingRight=3;rotatable=0;labelPosition=right;points=[];portConstraint=eastwest;fontStyle=0" vertex="1" parent="iE6FMapl29Qg4c_nM3nC-7">
          <mxGeometry y="78" width="190" height="8" as="geometry" />
        </mxCell>
        <mxCell id="iE6FMapl29Qg4c_nM3nC-12" value="+banearClientePorNoRecoger" style="text;align=left;verticalAlign=top;spacingLeft=4;spacingRight=4;overflow=hidden;rotatable=0;points=[[0,0.5],[1,0.5]];portConstraint=eastwest;fontStyle=0" vertex="1" parent="iE6FMapl29Qg4c_nM3nC-7">
          <mxGeometry y="86" width="190" height="26" as="geometry" />
        </mxCell>
        <mxCell id="iE6FMapl29Qg4c_nM3nC-71" value="" style="endArrow=block;html=1;fillColor=#FFFFFF;startArrow=none;exitX=0.5;exitY=0;exitDx=0;exitDy=0;endFill=0;edgeStyle=orthogonalEdgeStyle;" edge="1" parent="WIyWlLk6GJQsqaUBKTNV-1" source="iE6FMapl29Qg4c_nM3nC-1">
          <mxGeometry width="50" height="50" relative="1" as="geometry">
            <mxPoint x="575" y="502" as="sourcePoint" />
            <mxPoint x="560" y="310" as="targetPoint" />
          </mxGeometry>
        </mxCell>
        <mxCell id="iE6FMapl29Qg4c_nM3nC-72" value="" style="endArrow=block;html=1;fillColor=#FFFFFF;startArrow=none;exitX=0.5;exitY=0;exitDx=0;exitDy=0;endFill=0;edgeStyle=orthogonalEdgeStyle;" edge="1" parent="WIyWlLk6GJQsqaUBKTNV-1" source="iE6FMapl29Qg4c_nM3nC-13">
          <mxGeometry width="50" height="50" relative="1" as="geometry">
            <mxPoint x="320" y="500" as="sourcePoint" />
            <mxPoint x="560" y="310" as="targetPoint" />
          </mxGeometry>
        </mxCell>
        <mxCell id="iE6FMapl29Qg4c_nM3nC-73" value="" style="edgeStyle=segmentEdgeStyle;endArrow=block;html=1;fillColor=#FFFFFF;exitX=0.5;exitY=0;exitDx=0;exitDy=0;endFill=0;" edge="1" parent="WIyWlLk6GJQsqaUBKTNV-1" source="iE6FMapl29Qg4c_nM3nC-63">
          <mxGeometry width="50" height="50" relative="1" as="geometry">
            <mxPoint x="480" y="840" as="sourcePoint" />
            <mxPoint x="560" y="880" as="targetPoint" />
            <Array as="points">
              <mxPoint x="450" y="930" />
              <mxPoint x="560" y="930" />
            </Array>
          </mxGeometry>
        </mxCell>
        <mxCell id="iE6FMapl29Qg4c_nM3nC-75" value="" style="edgeStyle=segmentEdgeStyle;endArrow=block;html=1;fillColor=#FFFFFF;exitX=0.5;exitY=0;exitDx=0;exitDy=0;endFill=0;" edge="1" parent="WIyWlLk6GJQsqaUBKTNV-1">
          <mxGeometry width="50" height="50" relative="1" as="geometry">
            <mxPoint x="690" y="960" as="sourcePoint" />
            <mxPoint x="560" y="880" as="targetPoint" />
            <Array as="points">
              <mxPoint x="690" y="930" />
              <mxPoint x="560" y="930" />
            </Array>
          </mxGeometry>
        </mxCell>
        <mxCell id="iE6FMapl29Qg4c_nM3nC-79" value="" style="verticalAlign=bottom;html=1;endArrow=none;edgeStyle=orthogonalEdgeStyle;strokeWidth=2;fillColor=#FFFFFF;exitX=0.5;exitY=1;exitDx=0;exitDy=0;" edge="1" parent="WIyWlLk6GJQsqaUBKTNV-1" source="iE6FMapl29Qg4c_nM3nC-1">
          <mxGeometry x="-0.0049" y="10" relative="1" as="geometry">
            <mxPoint x="420" y="640" as="sourcePoint" />
            <mxPoint x="558" y="790" as="targetPoint" />
            <Array as="points">
              <mxPoint x="310" y="760" />
              <mxPoint x="558" y="760" />
            </Array>
            <mxPoint as="offset" />
          </mxGeometry>
        </mxCell>
        <mxCell id="iE6FMapl29Qg4c_nM3nC-80" value="1" style="resizable=0;html=1;align=left;verticalAlign=top;labelBackgroundColor=none;fontSize=10" connectable="0" vertex="1" parent="iE6FMapl29Qg4c_nM3nC-79">
          <mxGeometry x="-1" relative="1" as="geometry" />
        </mxCell>
        <mxCell id="iE6FMapl29Qg4c_nM3nC-81" value="1" style="resizable=0;html=1;align=right;verticalAlign=top;labelBackgroundColor=none;fontSize=10" connectable="0" vertex="1" parent="iE6FMapl29Qg4c_nM3nC-79">
          <mxGeometry x="1" relative="1" as="geometry">
            <mxPoint x="12" y="-20" as="offset" />
          </mxGeometry>
        </mxCell>
        <mxCell id="iE6FMapl29Qg4c_nM3nC-82" value="" style="verticalAlign=bottom;html=1;endArrow=none;edgeStyle=orthogonalEdgeStyle;strokeWidth=2;fillColor=#FFFFFF;entryX=0.456;entryY=0;entryDx=0;entryDy=0;entryPerimeter=0;" edge="1" parent="WIyWlLk6GJQsqaUBKTNV-1" target="iE6FMapl29Qg4c_nM3nC-60">
          <mxGeometry relative="1" as="geometry">
            <mxPoint x="558" y="630" as="sourcePoint" />
            <mxPoint x="580" y="640" as="targetPoint" />
            <Array as="points">
              <mxPoint x="558" y="670" />
              <mxPoint x="558" y="670" />
            </Array>
          </mxGeometry>
        </mxCell>
        <mxCell id="iE6FMapl29Qg4c_nM3nC-84" value="1" style="resizable=0;html=1;align=right;verticalAlign=top;labelBackgroundColor=none;fontSize=10" connectable="0" vertex="1" parent="iE6FMapl29Qg4c_nM3nC-82">
          <mxGeometry x="1" relative="1" as="geometry" />
        </mxCell>
      </root>
    </mxGraphModel>
  </diagram>
</mxfile>
